<svg id="Group_38" data-name="Group 38" xmlns="http://www.w3.org/2000/svg" xmlns:xlink="http://www.w3.org/1999/xlink" width="170.204" height="43.065" viewBox="0 0 170.204 43.065">
  <defs>
    <clipPath id="clip-path">
      <rect id="Rectangle_24" data-name="Rectangle 24" width="170.204" height="43.065" fill="none"/>
    </clipPath>
  </defs>
  <g id="Group_37" data-name="Group 37" clip-path="url(#clip-path)">
    <path id="Path_2197" data-name="Path 2197" d="M220.672,43.135h3.748V57.262h7.447v3.1H220.672Zm-7.448,11.031-2.583-6.4-2.607,6.4Zm-11.614,6.191L208.9,43.135h3.467l7.285,17.222h-4l-1.257-3.118h-7.54l-1.257,3.118ZM187.786,49.442l.07,10.915h-3.747V43.135h2.327l10.52,10.915-.093-10.915h3.723V60.357h-2.3ZM155.552,60.707a9.2,9.2,0,0,1-4.574-1.14,8.3,8.3,0,0,1-3.2-3.166,9.541,9.541,0,0,1,0-9.134A8.2,8.2,0,0,1,151,44.124,9.445,9.445,0,0,1,155.622,43a9.813,9.813,0,0,1,3.98.826,7.9,7.9,0,0,1,3.1,2.362l-2.56,2.048a5.27,5.27,0,0,0-2.013-1.582,5.866,5.866,0,0,0-2.455-.559,5.156,5.156,0,0,0-2.769.734,4.771,4.771,0,0,0-1.816,2.036,6.785,6.785,0,0,0-.628,2.979,6.481,6.481,0,0,0,.652,2.921,5.17,5.17,0,0,0,1.827,2.083,4.809,4.809,0,0,0,2.688.768,6.324,6.324,0,0,0,2.095-.325,3.346,3.346,0,0,0,1.4-.839v-2.7H155.5V50.839h7.284v6.633q-2.443,3.234-7.237,3.235m-14.739-6.54-2.583-6.4-2.607,6.4ZM129.2,60.357l7.285-17.222h3.467l7.285,17.222h-4l-1.257-3.118h-7.54l-1.257,3.118Zm-1.238,0h-3.747V43.135h3.747Zm45.628-2.863a5.244,5.244,0,0,0,2.758-.721,4.982,4.982,0,0,0,1.873-2.024,6.434,6.434,0,0,0,.675-3,6.505,6.505,0,0,0-.675-3.015,4.968,4.968,0,0,0-1.873-2.036,5.24,5.24,0,0,0-2.758-.721,5.3,5.3,0,0,0-2.77.721,4.868,4.868,0,0,0-1.873,2.036,6.609,6.609,0,0,0-.663,3.015,6.537,6.537,0,0,0,.663,3,4.881,4.881,0,0,0,1.873,2.024,5.307,5.307,0,0,0,2.77.721m0,3.1a10.052,10.052,0,0,1-4.783-1.105,7.924,7.924,0,0,1-3.235-3.119,9.838,9.838,0,0,1,0-9.24,7.927,7.927,0,0,1,3.235-3.118,10.872,10.872,0,0,1,9.554,0,7.953,7.953,0,0,1,3.223,3.118,9.841,9.841,0,0,1,0,9.24,7.95,7.95,0,0,1-3.223,3.119,9.986,9.986,0,0,1-4.771,1.105m-59.5-3.328a4.314,4.314,0,0,0,2.42-.686,4.537,4.537,0,0,0,1.629-1.943,7.507,7.507,0,0,0,0-5.8,4.539,4.539,0,0,0-1.629-1.943,4.318,4.318,0,0,0-2.42-.686h-3.328V57.262Zm-.024-14.127a8.941,8.941,0,0,1,4.446,1.082,7.612,7.612,0,0,1,3,3.025,9.135,9.135,0,0,1,1.07,4.48,9.266,9.266,0,0,1-1.07,4.5,7.573,7.573,0,0,1-3,3.049,8.941,8.941,0,0,1-4.446,1.082h-7.052V43.135Z" transform="translate(-61.663 -24.721)" fill="#58595b"/>
    <path id="Path_2198" data-name="Path 2198" d="M36.738,18.368,18.369,0,0,18.368,14.288,32.656,7.96,38.982l4.082,4.082,6.327-6.327L24.7,43.064l4.082-4.082-6.327-6.327Zm-28.574,0,10.2-10.2,10.205,10.2-10.205,10.2Z" transform="translate(0 0.001)" fill="#58595b"/>
  </g>
</svg>
