<svg xmlns="http://www.w3.org/2000/svg" width="449.011" height="449.012" viewBox="0 0 449.011 449.012">
  <g id="vec_01" data-name="vec 01" transform="translate(-297.2 -298.5)">
    <path id="Path_3507" data-name="Path 3507" d="M521.651,747.512h-224.4L297.2,523.006C297.2,399.027,397.727,298.5,521.706,298.5S746.212,399.027,746.212,523.006,645.63,747.512,521.651,747.512Z" transform="translate(0)" fill="#553c7c" fill-rule="evenodd"/>
    <g id="Group_63" data-name="Group 63" transform="translate(526.878 586.088)">
      <path id="Path_3508" data-name="Path 3508" d="M837.262,903.972h0a67.335,67.335,0,0,1-94.241,11.479h0a67.435,67.435,0,0,1-20.554-78.716A40.135,40.135,0,0,0,784.4,824.6a40.135,40.135,0,0,0,61.935,12.135A67.52,67.52,0,0,1,837.262,903.972Z" transform="translate(-717.363 -824.6)" fill="#fff" fill-rule="evenodd"/>
      <g id="Group_62" data-name="Group 62" transform="translate(31.507 34.766)">
        <g id="Group_61" data-name="Group 61">
          <path id="Path_3509" data-name="Path 3509" d="M836.97,888.2a7.817,7.817,0,0,0,15.634,0h3.225a10.942,10.942,0,0,1-3.225,7.817,10.815,10.815,0,0,1-7.762,3.225,10.942,10.942,0,0,1-7.817-3.225,10.815,10.815,0,0,1-3.225-7.762Z" transform="translate(-801.657 -888.2)" fill="#4e326e"/>
          <path id="Path_3510" data-name="Path 3510" d="M797.03,888.3a10.942,10.942,0,0,1-3.225,7.817,10.815,10.815,0,0,1-7.762,3.225,10.942,10.942,0,0,1-7.817-3.225A10.815,10.815,0,0,1,775,888.355h3.225a7.817,7.817,0,0,0,15.634,0Z" transform="translate(-775 -888.245)" fill="#4e326e"/>
        </g>
        <path id="Path_3511" data-name="Path 3511" d="M818.67,940.706a4.7,4.7,0,0,0-3.171,1.367,4.5,4.5,0,0,0-1.257,3.225,4.7,4.7,0,0,0,1.367,3.171,4.5,4.5,0,0,0,3.225,1.257l.055,3.225a7.694,7.694,0,0,1-5.685-13.01c.219-.219.492-.437.711-.656a8.168,8.168,0,0,1-.765-.656,7.682,7.682,0,0,1,5.193-13.229l.055,3.225a4.7,4.7,0,0,0-3.17,1.367,4.511,4.511,0,0,0,3.335,7.653Z" transform="translate(-791.228 -905.065)" fill="#4e326e"/>
      </g>
    </g>
    <g id="Group_66" data-name="Group 66" transform="translate(332.23 586.088)">
      <path id="Path_3512" data-name="Path 3512" d="M375.5,903.972h0a67.335,67.335,0,0,0,94.241,11.479h0A67.435,67.435,0,0,0,490.3,836.735,40.135,40.135,0,0,1,428.365,824.6a40.135,40.135,0,0,1-61.935,12.135A67.261,67.261,0,0,0,375.5,903.972Z" transform="translate(-361.282 -824.6)" fill="#fff" fill-rule="evenodd"/>
      <g id="Group_65" data-name="Group 65" transform="translate(48.442 34.766)">
        <g id="Group_64" data-name="Group 64">
          <path id="Path_3513" data-name="Path 3513" d="M468.759,888.2a7.817,7.817,0,0,1-15.634,0H449.9a10.942,10.942,0,0,0,3.225,7.817,10.815,10.815,0,0,0,7.762,3.225,10.942,10.942,0,0,0,7.817-3.225,10.814,10.814,0,0,0,3.225-7.762Z" transform="translate(-449.9 -888.2)" fill="#4e326e"/>
          <path id="Path_3514" data-name="Path 3514" d="M508.6,888.3a10.942,10.942,0,0,0,3.225,7.817,10.815,10.815,0,0,0,7.762,3.225,10.942,10.942,0,0,0,7.817-3.225,10.814,10.814,0,0,0,3.225-7.762H527.4a7.817,7.817,0,0,1-15.634,0Z" transform="translate(-476.512 -888.245)" fill="#4e326e"/>
        </g>
        <path id="Path_3515" data-name="Path 3515" d="M498.519,940.706a4.7,4.7,0,0,1,3.171,1.367,4.5,4.5,0,0,1,1.257,3.225,4.7,4.7,0,0,1-1.367,3.171,4.5,4.5,0,0,1-3.225,1.257l-.055,3.225a7.766,7.766,0,0,0,5.521-2.132,7.723,7.723,0,0,0,.219-10.878c-.219-.219-.492-.437-.711-.656a8.168,8.168,0,0,0,.765-.656A7.682,7.682,0,0,0,498.9,925.4l-.055,3.225a4.7,4.7,0,0,1,3.171,1.367,4.5,4.5,0,0,1,1.257,3.225,4.7,4.7,0,0,1-1.367,3.171,4.5,4.5,0,0,1-3.225,1.257Z" transform="translate(-471.842 -905.065)" fill="#4e326e"/>
      </g>
    </g>
    <path id="Path_3516" data-name="Path 3516" d="M602.739,451.9a69.919,69.919,0,0,1-99.6,59.8,105.932,105.932,0,1,0,199.251.109A69.925,69.925,0,0,1,603.013,451.9Z" transform="translate(-90.49 -69.545)" fill="#fff" fill-rule="evenodd"/>
    <path id="Path_3517" data-name="Path 3517" d="M709.4,624.9a11.7,11.7,0,0,0,23.4,0h4.81a16.454,16.454,0,1,1-32.908,0Z" transform="translate(-184.743 -147.976)" fill="#4e326e"/>
    <path id="Path_3518" data-name="Path 3518" d="M649.808,624.9a16.454,16.454,0,1,1-32.908,0h4.81a11.7,11.7,0,0,0,23.4,0Z" transform="translate(-144.939 -147.976)" fill="#4e326e"/>
    <path id="Path_3519" data-name="Path 3519" d="M693.508,701.4a16.454,16.454,0,1,1-32.908,0h4.81a11.7,11.7,0,0,0,23.4,0Z" transform="translate(-164.75 -182.658)" fill="#4e326e"/>
    <path id="Path_3520" data-name="Path 3520" d="M362.4,971.672h0a24.963,24.963,0,0,0,24.872,24.872h0a24.963,24.963,0,0,0,24.872-24.872h0A24.963,24.963,0,0,0,387.272,946.8h0A24.928,24.928,0,0,0,362.4,971.672Z" transform="translate(-29.559 -293.912)" fill="#553c7c" fill-rule="evenodd"/>
    <path id="Path_3521" data-name="Path 3521" d="M888.4,971.672h0a24.963,24.963,0,0,0,24.872,24.872h0a24.963,24.963,0,0,0,24.872-24.872h0A24.963,24.963,0,0,0,913.272,946.8h0A24.963,24.963,0,0,0,888.4,971.672Z" transform="translate(-268.025 -293.912)" fill="#553c7c" fill-rule="evenodd"/>
    <path id="Path_3522" data-name="Path 3522" d="M606.177,677.852a15.536,15.536,0,1,1-20.226,8.582A15.52,15.52,0,0,1,606.177,677.852Z" transform="translate(-130.389 -171.464)" fill="#f66" fill-rule="evenodd"/>
    <path id="Path_3523" data-name="Path 3523" d="M762.977,677.852a15.536,15.536,0,1,1-20.226,8.582A15.52,15.52,0,0,1,762.977,677.852Z" transform="translate(-201.476 -171.464)" fill="#f66" fill-rule="evenodd"/>
  </g>
</svg>
